# xmcd
#
# Track frame offsets: 
#        150
#        54307
#        78522
#        116912
#        142247
#        169937
#        196015
#
# Disc length: 3152 seconds
#
# Revision: 7
# Processed by: cddbd v1.5.2PL0 Copyright (c) Steve Scherf et al.
# Submitted via: ExactAudioCopy v0.99pb5
#
DISCID=600c4e07
DTITLE=Polish National Radio Symphony Orchestra, Antoni Wit - Messiaen
DTITLE=Turangalîla-Symphonie  { VIII à X }
DYEAR=1998
DGENRE=Classical
TTITLE0=Turangalîla-Symphonie - VIII Développement de l' Amour
TTITLE1=Turangalîla-Symphonie - IX Turangalîla 3
TTITLE2=Turangalîla-Symphonie - X Final
TTITLE3=L'ascension - I Majesté du Christ demandant sa gloire à son Pè
TTITLE3=re
TTITLE4=L'ascension - II Alléluias sereins d'une âme qui désire le cie
TTITLE4=l
TTITLE5=L'ascension - III Alléluia sur la trompette, Alléluia sur la c
TTITLE5=ymbale
TTITLE6=L'ascension - IV Prière du Christ montant vers son Père
EXTD=Naxos - #8554478-79 DDD\nKatowice Polish Radio Orchestra and Chorus
EXTD=with Thomas Bloch\n YEAR: 1998
EXTT0=
EXTT1=
EXTT2=
EXTT3=
EXTT4=
EXTT5=
EXTT6=
PLAYORDER=
